<mxfile host="app.diagrams.net" modified="2023-03-22T12:11:37.794Z" agent="5.0 (Macintosh; Intel Mac OS X 10_15_7) AppleWebKit/537.36 (KHTML, like Gecko) Chrome/110.0.0.0 Safari/537.36" etag="QSYWl4p4IKQNbQSgSCU6" version="21.0.8" type="github">
  <diagram name="Page-1" id="oJwNvunmeKxMqPNMfQIt">
    <mxGraphModel dx="1194" dy="754" grid="1" gridSize="10" guides="1" tooltips="1" connect="1" arrows="1" fold="1" page="1" pageScale="1" pageWidth="850" pageHeight="1100" math="0" shadow="0">
      <root>
        <mxCell id="0" />
        <mxCell id="1" parent="0" />
        <mxCell id="W7DP5QWqIo50xXPmNJvo-1" value="&lt;font style=&quot;font-size: 20px;&quot;&gt;Consensus Layer&lt;/font&gt;" style="rounded=1;whiteSpace=wrap;html=1;" vertex="1" parent="1">
          <mxGeometry x="150" y="200" width="490" height="80" as="geometry" />
        </mxCell>
        <mxCell id="W7DP5QWqIo50xXPmNJvo-2" value="&lt;font style=&quot;font-size: 20px;&quot;&gt;Execution Layer&lt;/font&gt;" style="rounded=1;whiteSpace=wrap;html=1;" vertex="1" parent="1">
          <mxGeometry x="150" y="470" width="490" height="80" as="geometry" />
        </mxCell>
        <mxCell id="W7DP5QWqIo50xXPmNJvo-10" value="" style="endArrow=classic;html=1;rounded=0;strokeWidth=2;exitX=0.5;exitY=1;exitDx=0;exitDy=0;entryX=0.5;entryY=0;entryDx=0;entryDy=0;" edge="1" parent="1" source="W7DP5QWqIo50xXPmNJvo-1" target="W7DP5QWqIo50xXPmNJvo-2">
          <mxGeometry width="50" height="50" relative="1" as="geometry">
            <mxPoint x="620" y="410" as="sourcePoint" />
            <mxPoint x="670" y="360" as="targetPoint" />
          </mxGeometry>
        </mxCell>
        <mxCell id="W7DP5QWqIo50xXPmNJvo-11" value="&lt;font style=&quot;font-size: 16px;&quot;&gt;&lt;b&gt;Engine API&lt;/b&gt;&lt;/font&gt;" style="text;html=1;strokeColor=none;fillColor=none;align=center;verticalAlign=middle;whiteSpace=wrap;rounded=0;fontColor=#FF0000;" vertex="1" parent="1">
          <mxGeometry x="345" y="360" width="100" height="30" as="geometry" />
        </mxCell>
        <mxCell id="W7DP5QWqIo50xXPmNJvo-14" value="" style="ellipse;whiteSpace=wrap;html=1;aspect=fixed;fillColor=#dae8fc;strokeColor=#6c8ebf;" vertex="1" parent="1">
          <mxGeometry x="160" y="160" width="30" height="30" as="geometry" />
        </mxCell>
        <mxCell id="W7DP5QWqIo50xXPmNJvo-16" value="" style="ellipse;whiteSpace=wrap;html=1;aspect=fixed;fillColor=#dae8fc;strokeColor=#6c8ebf;" vertex="1" parent="1">
          <mxGeometry x="200" y="160" width="30" height="30" as="geometry" />
        </mxCell>
        <mxCell id="W7DP5QWqIo50xXPmNJvo-17" value="" style="ellipse;whiteSpace=wrap;html=1;aspect=fixed;fillColor=#dae8fc;strokeColor=#6c8ebf;" vertex="1" parent="1">
          <mxGeometry x="240" y="160" width="30" height="30" as="geometry" />
        </mxCell>
        <mxCell id="W7DP5QWqIo50xXPmNJvo-18" value="" style="ellipse;whiteSpace=wrap;html=1;aspect=fixed;fillColor=#dae8fc;strokeColor=#6c8ebf;" vertex="1" parent="1">
          <mxGeometry x="280" y="160" width="30" height="30" as="geometry" />
        </mxCell>
        <mxCell id="W7DP5QWqIo50xXPmNJvo-19" value="" style="ellipse;whiteSpace=wrap;html=1;aspect=fixed;fillColor=#dae8fc;strokeColor=#6c8ebf;" vertex="1" parent="1">
          <mxGeometry x="320" y="160" width="30" height="30" as="geometry" />
        </mxCell>
        <mxCell id="W7DP5QWqIo50xXPmNJvo-20" value="" style="ellipse;whiteSpace=wrap;html=1;aspect=fixed;fillColor=#dae8fc;strokeColor=#6c8ebf;" vertex="1" parent="1">
          <mxGeometry x="360" y="160" width="30" height="30" as="geometry" />
        </mxCell>
        <mxCell id="W7DP5QWqIo50xXPmNJvo-21" value="" style="ellipse;whiteSpace=wrap;html=1;aspect=fixed;fillColor=#dae8fc;strokeColor=#6c8ebf;" vertex="1" parent="1">
          <mxGeometry x="400" y="160" width="30" height="30" as="geometry" />
        </mxCell>
        <mxCell id="W7DP5QWqIo50xXPmNJvo-22" value="" style="ellipse;whiteSpace=wrap;html=1;aspect=fixed;fillColor=#dae8fc;strokeColor=#6c8ebf;" vertex="1" parent="1">
          <mxGeometry x="445" y="160" width="30" height="30" as="geometry" />
        </mxCell>
        <mxCell id="W7DP5QWqIo50xXPmNJvo-23" value="" style="ellipse;whiteSpace=wrap;html=1;aspect=fixed;fillColor=#f8cecc;strokeColor=#b85450;" vertex="1" parent="1">
          <mxGeometry x="445" y="360" width="30" height="30" as="geometry" />
        </mxCell>
        <mxCell id="W7DP5QWqIo50xXPmNJvo-24" value="" style="ellipse;whiteSpace=wrap;html=1;aspect=fixed;fillColor=#d5e8d4;strokeColor=#82b366;" vertex="1" parent="1">
          <mxGeometry x="160" y="560" width="30" height="30" as="geometry" />
        </mxCell>
        <mxCell id="W7DP5QWqIo50xXPmNJvo-25" value="" style="ellipse;whiteSpace=wrap;html=1;aspect=fixed;fillColor=#d5e8d4;strokeColor=#82b366;" vertex="1" parent="1">
          <mxGeometry x="200" y="560" width="30" height="30" as="geometry" />
        </mxCell>
        <mxCell id="W7DP5QWqIo50xXPmNJvo-26" value="&lt;font style=&quot;font-size: 16px;&quot;&gt;withdrawal 1 - 11&lt;/font&gt;" style="text;html=1;strokeColor=none;fillColor=none;align=center;verticalAlign=middle;whiteSpace=wrap;rounded=0;" vertex="1" parent="1">
          <mxGeometry x="325" y="130" width="140" height="20" as="geometry" />
        </mxCell>
        <mxCell id="W7DP5QWqIo50xXPmNJvo-27" value="" style="ellipse;whiteSpace=wrap;html=1;aspect=fixed;fillColor=#dae8fc;strokeColor=#6c8ebf;" vertex="1" parent="1">
          <mxGeometry x="490" y="160" width="30" height="30" as="geometry" />
        </mxCell>
        <mxCell id="W7DP5QWqIo50xXPmNJvo-28" value="" style="ellipse;whiteSpace=wrap;html=1;aspect=fixed;fillColor=#dae8fc;strokeColor=#6c8ebf;" vertex="1" parent="1">
          <mxGeometry x="530" y="160" width="30" height="30" as="geometry" />
        </mxCell>
        <mxCell id="W7DP5QWqIo50xXPmNJvo-29" value="" style="ellipse;whiteSpace=wrap;html=1;aspect=fixed;fillColor=#dae8fc;strokeColor=#6c8ebf;" vertex="1" parent="1">
          <mxGeometry x="570" y="160" width="30" height="30" as="geometry" />
        </mxCell>
        <mxCell id="W7DP5QWqIo50xXPmNJvo-30" value="&lt;font style=&quot;font-size: 16px;&quot;&gt;withdrawal 12 - 14&lt;/font&gt;" style="text;html=1;strokeColor=none;fillColor=none;align=center;verticalAlign=middle;whiteSpace=wrap;rounded=0;" vertex="1" parent="1">
          <mxGeometry x="480" y="365" width="140" height="20" as="geometry" />
        </mxCell>
        <mxCell id="W7DP5QWqIo50xXPmNJvo-31" value="&lt;font style=&quot;font-size: 16px;&quot;&gt;withdrawal 15, 16&lt;/font&gt;" style="text;html=1;strokeColor=none;fillColor=none;align=center;verticalAlign=middle;whiteSpace=wrap;rounded=0;" vertex="1" parent="1">
          <mxGeometry x="130" y="600" width="140" height="20" as="geometry" />
        </mxCell>
        <mxCell id="W7DP5QWqIo50xXPmNJvo-32" value="" style="ellipse;whiteSpace=wrap;html=1;aspect=fixed;fillColor=#f8cecc;strokeColor=#b85450;" vertex="1" parent="1">
          <mxGeometry x="445" y="400" width="30" height="30" as="geometry" />
        </mxCell>
        <mxCell id="W7DP5QWqIo50xXPmNJvo-33" value="" style="ellipse;whiteSpace=wrap;html=1;aspect=fixed;fillColor=#f8cecc;strokeColor=#b85450;" vertex="1" parent="1">
          <mxGeometry x="445" y="320" width="30" height="30" as="geometry" />
        </mxCell>
      </root>
    </mxGraphModel>
  </diagram>
</mxfile>
